<?xml version="1.0" encoding="UTF-8" standalone="no"?>
<!-- Created with Inkscape (http://www.inkscape.org/) -->

<svg
   width="128.80466mm"
   height="28.558664mm"
   viewBox="0 0 128.80466 28.558664"
   version="1.1"
   id="svg1"
   xml:space="preserve"
   xmlns="http://www.w3.org/2000/svg"
   xmlns:svg="http://www.w3.org/2000/svg"><defs
     id="defs1" /><text
     xml:space="preserve"
     style="font-size:19.1977px;line-height:0;font-family:System-ui;-inkscape-font-specification:'System-ui, @opsz=32,wght=700';font-variation-settings:'opsz' 32, 'wght' 700;letter-spacing:0.305087px;word-spacing:0px;writing-mode:lr-tb;direction:ltr;fill:#1297e6;fill-opacity:1;stroke:#484848;stroke-width:0;stroke-miterlimit:2.6;stroke-dasharray:none"
     x="25.365274"
     y="19.191471"
     id="text1"
     transform="scale(0.85856358,1.1647361)"><tspan
       id="tspan1"
       style="font-style:normal;font-variant:normal;font-weight:normal;font-stretch:normal;font-size:19.1977px;font-family:Righteous;-inkscape-font-specification:'Righteous, @opsz=32,wght=700';font-variant-ligatures:normal;font-variant-caps:normal;font-variant-numeric:normal;font-variant-east-asian:normal;font-variation-settings:'opsz' 32, 'wght' 700;fill:#1297e6;fill-opacity:1;stroke-width:0"
       x="25.365274"
       y="19.191471">WFM<tspan
   style="fill:#1a1a1a"
   id="tspan11">Reporter</tspan></tspan></text><path
     style="font-variation-settings:'opsz' 32, 'wght' 700;fill:#465fff;fill-opacity:1;stroke:#484848;stroke-width:0;stroke-miterlimit:2.6;stroke-dasharray:none"
     d="M 25.661818,22.494851 C 24.420867,22.217766 23.35708,20.992885 22.968034,19.393135 22.786028,18.644732 22.790525,18.818767 22.790525,12.52637 V 6.7245385 h 1.13424 1.134237 l 0.0086,5.7791745 0.0086,5.779172 0.08937,0.259377 c 0.112998,0.327956 0.285406,0.575638 0.511646,0.735039 0.601327,0.423674 1.327949,0.09157 1.622968,-0.741773 l 0.07796,-0.220221 0.0087,-5.795383 0.0087,-5.7953855 h 1.133461 1.133465 l 0.0097,5.7629635 c 0.0092,5.445025 0.01294,5.773597 0.0682,5.955729 0.129186,0.425833 0.377423,0.759399 0.684729,0.920096 0.217476,0.113726 0.572502,0.120436 0.802579,0.01516 0.315703,-0.144447 0.588245,-0.517827 0.728718,-0.998342 0.0531,-0.181623 0.05751,-0.574749 0.06649,-5.925071 l 0.0096,-5.7305418 h 1.133819 1.133813 l -7.93e-4,5.5035898 c -5.29e-4,3.026974 -0.01442,5.722435 -0.03099,5.989916 -0.03632,0.586179 -0.12551,1.068231 -0.290719,1.571349 -0.46411,1.413375 -1.421638,2.426356 -2.546773,2.694268 -0.242784,0.05781 -0.357145,0.06681 -0.680857,0.0536 -0.462384,-0.01886 -0.679006,-0.07236 -1.069917,-0.264136 -0.359103,-0.176178 -0.653288,-0.395822 -0.925439,-0.69096 l -0.207581,-0.22511 -0.296646,0.294746 c -0.367736,0.365374 -0.743886,0.605226 -1.19013,0.758881 -0.300326,0.103412 -0.369154,0.114771 -0.752065,0.124118 -0.295743,0.0072 -0.4886,-0.0047 -0.646464,-0.03995 z"
     id="path20" /><path
     style="font-variation-settings:'opsz' 32, 'wght' 700;fill:#465fff;fill-opacity:1;stroke:#484848;stroke-width:0;stroke-miterlimit:2.6;stroke-dasharray:none"
     d="M 36.634605,14.538177 V 6.7245385 h 4.020296 4.020293 v 1.5400337 1.5400311 h -2.885535 -2.885532 v 1.5886647 1.588666 h 1.734563 1.734561 v 1.556243 1.556242 H 40.63869 38.904127 v 3.128698 3.128697 h -1.134761 -1.134761 z"
     id="path21" /><path
     style="font-variation-settings:'opsz' 32, 'wght' 700;fill:#465fff;fill-opacity:1;stroke:#484848;stroke-width:0;stroke-miterlimit:2.6;stroke-dasharray:none"
     d="m 45.972732,16.799591 c 2.65e-4,-3.156455 0.014,-5.758076 0.03158,-6.029295 0.07288,-1.1249348 0.432846,-2.1578311 1.026806,-2.9463186 0.36948,-0.4904872 0.766236,-0.8212269 1.277639,-1.0650537 0.414655,-0.1976993 0.626067,-0.2438903 1.116226,-0.2438903 0.488207,0 0.701771,0.046299 1.109009,0.2404269 0.379034,0.180684 0.635336,0.3635851 0.940279,0.6709992 L 51.740363,7.69471 52.025441,7.4106242 c 0.600583,-0.5984901 1.289888,-0.9109604 2.012899,-0.9124738 1.660292,-0.00347 3.105629,1.6435228 3.393853,3.8673886 0.0429,0.330959 0.04959,1.165899 0.04959,6.184444 v 5.801831 h -1.134761 -1.134761 v -5.717249 c 0,-5.590071 -0.0013,-5.722828 -0.06414,-5.968015 -0.08328,-0.32562 -0.201935,-0.540909 -0.42219,-0.7660273 -0.209585,-0.2142093 -0.394605,-0.290449 -0.70485,-0.290449 -0.515205,0 -0.95177,0.4472573 -1.094584,1.1213893 -0.04065,0.191865 -0.04756,1.043979 -0.04804,5.922232 l -5.29e-4,5.698119 h -1.134761 -1.134761 l -0.0011,-5.649486 c -0.0011,-4.731795 -0.0086,-5.691434 -0.04714,-5.907707 -0.08874,-0.498072 -0.384,-0.9398739 -0.738396,-1.1048707 -0.219017,-0.1019678 -0.556334,-0.1088231 -0.761977,-0.015478 -0.208174,0.094488 -0.471087,0.3613947 -0.586083,0.5949817 -0.210569,0.427726 -0.198634,0.0471 -0.199163,6.352021 l -5.29e-4,5.730542 h -1.150972 -1.150972 z"
     id="path33" /><g
     id="g52"
     transform="matrix(0.26458333,0,0,0.27856132,-24.595136,-20.147504)">
			<g
   id="g51">
				<g
   id="g40"
   style="fill:#465fff;fill-opacity:1">
					<g
   id="g38"
   style="fill:#465fff;fill-opacity:1">
						<path
   style="fill:#465fff;fill-opacity:1"
   d="m 143.252,92.815 -1.235,-20.488 c -5.886,0.385 -11.51,1.717 -16.713,3.843 l 6.948,18.911 c 3.466,-1.26 7.16,-2.039 11,-2.266 z"
   id="path36" />
						<path
   style="fill:#465fff;fill-opacity:1"
   d="M 117.425,104.756 104.014,92.093 c -3.786,4.751 -6.737,10.165 -8.633,16.032 l 14.917,6.898 c 1.817,-3.804 4.237,-7.262 7.127,-10.267 z"
   id="path37" />
						<path
   style="fill:#465fff;fill-opacity:1"
   d="m 129.036,96.424 -8.531,-18.008 c -5.434,2.884 -10.289,6.678 -14.356,11.166 l 12.856,13.616 c 2.957,-2.747 6.336,-5.04 10.031,-6.774 z"
   id="path38" />
					</g>
					<g
   id="g39"
   style="fill:#465fff;fill-opacity:1">
						<path
   style="fill:#465fff;fill-opacity:1"
   d="m 145.573,170.892 v 0 c -21.546,0 -39.075,-17.529 -39.075,-39.075 0,-5.522 1.158,-10.776 3.233,-15.543 l -14.916,-6.268 c -1.208,4.31 -1.857,8.844 -1.857,13.523 0,28.298 23.603,51.32 52.616,51.32 0,0 0,0 0,0 v -3.957 z"
   id="path39" />
					</g>
				</g>
				<g
   id="g50">
					
						<circle
   transform="matrix(0.1383,-0.9904,0.9904,0.1383,-11.7288,263.5194)"
   style="fill:none;stroke:#010e30;stroke-miterlimit:10"
   cx="145.573"
   cy="138.5"
   id="ellipse40"
   r="21.212" />
					<path
   style="fill:#1297e6"
   d="m 145.573,117.288 v 21.217 h 21.212 c 0,-0.001 0,-0.003 0,-0.004 0.001,-11.698 -9.515,-21.213 -21.212,-21.213 z"
   id="path40" />
					<polyline
   style="fill:none;stroke:#010e30;stroke-width:2;stroke-miterlimit:10"
   points="149.893,113.263 149.893,108.138        141.253,108.138 141.253,113.263      "
   id="polyline40" />
					
						<rect
   x="138.58099"
   y="101.763"
   style="fill:none;stroke:#010e30;stroke-width:2;stroke-linecap:round;stroke-linejoin:round;stroke-miterlimit:10"
   width="13.985"
   height="6.375"
   id="rect40" />
					<polyline
   style="fill:none;stroke:#010e30;stroke-width:2;stroke-miterlimit:10"
   points="130.11,118.458 127.595,115.944        123.017,120.522 125.507,123.011      "
   id="polyline41" />
					
						<rect
   x="118.378"
   y="114.155"
   transform="matrix(0.7071,-0.7071,0.7071,0.7071,-46.2021,121.5456)"
   style="fill:none;stroke:#010e30;stroke-width:2;stroke-linecap:round;stroke-linejoin:round;stroke-miterlimit:10"
   width="10.48"
   height="4.777"
   id="rect41" />
					
						<circle
   transform="matrix(0.1383,-0.9904,0.9904,0.1383,-11.7288,263.5194)"
   style="fill:none;stroke:#010e30;stroke-miterlimit:10"
   cx="145.573"
   cy="138.5"
   id="ellipse41"
   r="21.212" />
					
						<circle
   transform="matrix(0.1449,-0.9895,0.9895,0.1449,-12.8697,262.7473)"
   style="fill:none;stroke:#010e30;stroke-width:2;stroke-linecap:round;stroke-linejoin:round;stroke-miterlimit:10"
   cx="145.573"
   cy="138.819"
   id="ellipse42"
   r="25.556" />
					<polyline
   style="fill:none;stroke:#010e30;stroke-width:2;stroke-miterlimit:10"
   points="161.022,118.473 163.551,115.944        168.129,120.522 165.64,123.011      "
   id="polyline42" />
					
						<rect
   x="162.28999"
   y="114.155"
   transform="matrix(-0.7071,-0.7071,0.7071,-0.7071,203.583,317.4135)"
   style="fill:none;stroke:#010e30;stroke-width:2;stroke-linecap:round;stroke-linejoin:round;stroke-miterlimit:10"
   width="10.48"
   height="4.777"
   id="rect42" />
					<g
   id="g49">
						<path
   style="fill:#010e30"
   d="m 146.253,117.305 c -0.226,-0.007 -0.452,-0.017 -0.68,-0.017 -0.228,0 -0.453,0.01 -0.679,0.017 v 2.467 c 0,0.375 0.304,0.679 0.679,0.679 v 0 c 0.375,0 0.68,-0.304 0.68,-0.679 z"
   id="path42" />
						<path
   style="fill:#010e30"
   d="m 146.253,159.695 v -2.458 c 0,-0.375 -0.304,-0.68 -0.68,-0.68 v 0 c -0.375,0 -0.679,0.304 -0.679,0.68 v 2.458 c 0.226,0.007 0.452,0.017 0.679,0.017 0.228,0 0.454,-0.01 0.68,-0.017 z"
   id="path43" />
						<path
   style="fill:#010e30"
   d="m 159.3,125.739 1.737,-1.737 c -0.31,-0.33 -0.63,-0.651 -0.961,-0.961 l -1.737,1.737 c -0.265,0.265 -0.265,0.696 0,0.961 v 0 c 0.265,0.265 0.696,0.265 0.961,0 z"
   id="path44" />
						<path
   style="fill:#010e30"
   d="m 131.847,151.27 -1.733,1.733 c 0.31,0.33 0.631,0.651 0.961,0.961 l 1.733,-1.733 c 0.265,-0.265 0.265,-0.696 0,-0.961 v 0 c -0.265,-0.266 -0.696,-0.266 -0.961,0 z"
   id="path45" />
						<path
   style="fill:#010e30"
   d="m 164.306,139.184 h 2.462 c 0.007,-0.228 0.017,-0.454 0.017,-0.684 0,-0.227 -0.01,-0.451 -0.017,-0.675 h -2.462 c -0.375,0 -0.68,0.304 -0.68,0.68 v 0 c 0.001,0.374 0.305,0.679 0.68,0.679 z"
   id="path46" />
						<path
   style="fill:#010e30"
   d="m 126.841,137.825 h -2.462 c -0.007,0.225 -0.017,0.449 -0.017,0.675 0,0.229 0.01,0.456 0.017,0.684 h 2.462 c 0.375,0 0.68,-0.304 0.68,-0.679 v 0 c -0.001,-0.376 -0.305,-0.68 -0.68,-0.68 z"
   id="path47" />
						<path
   style="fill:#010e30"
   d="m 158.339,153.16964 v 0 c -0.265,0.265 -0.265,0.696 0,0.961 l 1.733,1.733 c 0.331,-0.31 0.651,-0.63 0.961,-0.961 l -1.733,-1.733 c -0.265,-0.266 -0.696,-0.266 -0.961,0 z"
   id="path48" />
						<path
   style="fill:#010e30"
   d="m 132.808,125.739 v 0 c 0.265,-0.265 0.265,-0.696 0,-0.961 l -1.737,-1.737 c -0.33,0.31 -0.651,0.631 -0.961,0.961 l 1.737,1.737 c 0.265,0.265 0.696,0.265 0.961,0 z"
   id="path49" />
					</g>
				</g>
			<path
   style="font-variation-settings:'opsz' 32, 'wght' 700;fill:#465fff;fill-opacity:1;stroke:#484848;stroke-width:0;stroke-miterlimit:2.6;stroke-dasharray:none"
   d="m 143.92186,192.64395 c 0,-0.69078 -0.47658,-1.9017 -1.019,-2.58915 -0.63268,-0.80183 -1.72694,-1.44148 -2.65376,-1.55125 l -0.6161,-0.073 v -7.18367 -7.18366 l 0.27571,-0.12097 c 0.25689,-0.1127 0.27811,-0.2079 0.31083,-1.3948 l 0.0351,-1.27384 0.96386,0.0743 c 4.04952,0.31228 8.61383,2.28064 11.55886,4.98478 l 0.82924,0.76141 -0.73733,0.7882 c -0.60288,0.64448 -0.73733,0.86434 -0.73733,1.20567 0,0.42173 0.33671,0.79896 0.71314,0.79896 0.0927,0 0.55032,-0.36865 1.01705,-0.81924 l 0.84858,-0.81924 0.36349,0.42099 c 0.75399,0.87327 2.0752,2.92084 2.73649,4.24091 1.21715,2.4297 1.97698,5.02582 2.27872,7.78581 0.0716,0.65446 0.13009,1.27481 0.13009,1.37856 0,0.15585 -0.19168,0.18864 -1.10285,0.18864 -0.93946,0 -1.13916,0.0363 -1.34792,0.24507 -0.1348,0.1348 -0.24508,0.30022 -0.24508,0.36762 0,0.0802 -2.34866,0.12254 -6.80091,0.12254 h -6.8009 z"
   id="path19"
   transform="matrix(1,0,0,0.94982079,6.0093143,-44.830129)" /></g>
			<circle
   style="fill:#010e30"
   cx="145.573"
   cy="138.504"
   r="4.3200002"
   id="circle51" />
		</g></svg>
