<?xml version="1.0" encoding="UTF-8" standalone="no"?>
<!-- Created with Inkscape (http://www.inkscape.org/) -->

<svg
   width="128.80466mm"
   height="28.558664mm"
   viewBox="0 0 128.80466 28.558664"
   version="1.1"
   id="svg1"
   xml:space="preserve"
   xmlns="http://www.w3.org/2000/svg"
   xmlns:svg="http://www.w3.org/2000/svg"><defs
     id="defs1" /><text
     xml:space="preserve"
     style="font-size:19.1977px;line-height:0;font-family:System-ui;-inkscape-font-specification:'System-ui, @opsz=32,wght=700';font-variation-settings:'opsz' 32, 'wght' 700;letter-spacing:0.305087px;word-spacing:0px;writing-mode:lr-tb;direction:ltr;fill:#1297e6;fill-opacity:1;stroke:#484848;stroke-width:0;stroke-miterlimit:2.6;stroke-dasharray:none"
     x="25.365274"
     y="19.191471"
     id="text1"
     transform="scale(0.85856358,1.1647361)"><tspan
       id="tspan1"
       style="font-style:normal;font-variant:normal;font-weight:normal;font-stretch:normal;font-size:19.1977px;font-family:Righteous;-inkscape-font-specification:'Righteous, @opsz=32,wght=700';font-variant-ligatures:normal;font-variant-caps:normal;font-variant-numeric:normal;font-variant-east-asian:normal;font-variation-settings:'opsz' 32, 'wght' 700;fill:#1297e6;fill-opacity:1;stroke-width:0"
       x="25.365274"
       y="19.191471">WFM<tspan
   style="fill:#ffffff"
   id="tspan11">Reporter</tspan></tspan></text><g
     id="g52"
     transform="matrix(0.26458333,0,0,0.27856132,-24.595136,-20.147504)">
			<g
   id="g51">
				<g
   id="g40"
   style="fill:#465fff;fill-opacity:1">
					<g
   id="g38"
   style="fill:#465fff;fill-opacity:1">
						<path
   style="fill:#465fff;fill-opacity:1"
   d="m 143.252,92.815 -1.235,-20.488 c -5.886,0.385 -11.51,1.717 -16.713,3.843 l 6.948,18.911 c 3.466,-1.26 7.16,-2.039 11,-2.266 z"
   id="path36" />
						<path
   style="fill:#465fff;fill-opacity:1"
   d="M 117.425,104.756 104.014,92.093 c -3.786,4.751 -6.737,10.165 -8.633,16.032 l 14.917,6.898 c 1.817,-3.804 4.237,-7.262 7.127,-10.267 z"
   id="path37" />
						<path
   style="fill:#465fff;fill-opacity:1"
   d="m 129.036,96.424 -8.531,-18.008 c -5.434,2.884 -10.289,6.678 -14.356,11.166 l 12.856,13.616 c 2.957,-2.747 6.336,-5.04 10.031,-6.774 z"
   id="path38" />
					</g>
					<g
   id="g39"
   style="fill:#465fff;fill-opacity:1">
						<path
   style="fill:#465fff;fill-opacity:1"
   d="m 145.573,170.892 v 0 c -21.546,0 -39.075,-17.529 -39.075,-39.075 0,-5.522 1.158,-10.776 3.233,-15.543 l -14.916,-6.268 c -1.208,4.31 -1.857,8.844 -1.857,13.523 0,28.298 23.603,51.32 52.616,51.32 0,0 0,0 0,0 v -3.957 z"
   id="path39" />
					</g>
				</g>
				<g
   id="g50">
					
						<circle
   transform="matrix(0.1383,-0.9904,0.9904,0.1383,-11.7288,263.5194)"
   style="fill:none;stroke:#010e30;stroke-miterlimit:10"
   cx="145.573"
   cy="138.5"
   id="ellipse40"
   r="21.212" />
					<path
   style="fill:#1297e6"
   d="m 145.573,117.288 v 21.217 h 21.212 c 0,-0.001 0,-0.003 0,-0.004 0.001,-11.698 -9.515,-21.213 -21.212,-21.213 z"
   id="path40" />
					<polyline
   style="fill:none;stroke:#010e30;stroke-width:2;stroke-miterlimit:10"
   points="149.893,113.263 149.893,108.138        141.253,108.138 141.253,113.263      "
   id="polyline40" />
					
						<rect
   x="138.58099"
   y="101.763"
   style="fill:none;stroke:#010e30;stroke-width:2;stroke-linecap:round;stroke-linejoin:round;stroke-miterlimit:10"
   width="13.985"
   height="6.375"
   id="rect40" />
					<polyline
   style="fill:none;stroke:#010e30;stroke-width:2;stroke-miterlimit:10"
   points="130.11,118.458 127.595,115.944        123.017,120.522 125.507,123.011      "
   id="polyline41" />
					
						<rect
   x="118.378"
   y="114.155"
   transform="matrix(0.7071,-0.7071,0.7071,0.7071,-46.2021,121.5456)"
   style="fill:none;stroke:#010e30;stroke-width:2;stroke-linecap:round;stroke-linejoin:round;stroke-miterlimit:10"
   width="10.48"
   height="4.777"
   id="rect41" />
					
						<circle
   transform="matrix(0.1383,-0.9904,0.9904,0.1383,-11.7288,263.5194)"
   style="fill:none;stroke:#010e30;stroke-miterlimit:10"
   cx="145.573"
   cy="138.5"
   id="ellipse41"
   r="21.212" />
					
						<circle
   transform="matrix(0.1449,-0.9895,0.9895,0.1449,-12.8697,262.7473)"
   style="fill:none;stroke:#010e30;stroke-width:2;stroke-linecap:round;stroke-linejoin:round;stroke-miterlimit:10"
   cx="145.573"
   cy="138.819"
   id="ellipse42"
   r="25.556" />
					<polyline
   style="fill:none;stroke:#010e30;stroke-width:2;stroke-miterlimit:10"
   points="161.022,118.473 163.551,115.944        168.129,120.522 165.64,123.011      "
   id="polyline42" />
					
						<rect
   x="162.28999"
   y="114.155"
   transform="matrix(-0.7071,-0.7071,0.7071,-0.7071,203.583,317.4135)"
   style="fill:none;stroke:#010e30;stroke-width:2;stroke-linecap:round;stroke-linejoin:round;stroke-miterlimit:10"
   width="10.48"
   height="4.777"
   id="rect42" />
					<g
   id="g49">
						<path
   style="fill:#010e30"
   d="m 146.253,117.305 c -0.226,-0.007 -0.452,-0.017 -0.68,-0.017 -0.228,0 -0.453,0.01 -0.679,0.017 v 2.467 c 0,0.375 0.304,0.679 0.679,0.679 v 0 c 0.375,0 0.68,-0.304 0.68,-0.679 z"
   id="path42" />
						<path
   style="fill:#010e30"
   d="m 146.253,159.695 v -2.458 c 0,-0.375 -0.304,-0.68 -0.68,-0.68 v 0 c -0.375,0 -0.679,0.304 -0.679,0.68 v 2.458 c 0.226,0.007 0.452,0.017 0.679,0.017 0.228,0 0.454,-0.01 0.68,-0.017 z"
   id="path43" />
						<path
   style="fill:#010e30"
   d="m 159.3,125.739 1.737,-1.737 c -0.31,-0.33 -0.63,-0.651 -0.961,-0.961 l -1.737,1.737 c -0.265,0.265 -0.265,0.696 0,0.961 v 0 c 0.265,0.265 0.696,0.265 0.961,0 z"
   id="path44" />
						<path
   style="fill:#010e30"
   d="m 131.847,151.27 -1.733,1.733 c 0.31,0.33 0.631,0.651 0.961,0.961 l 1.733,-1.733 c 0.265,-0.265 0.265,-0.696 0,-0.961 v 0 c -0.265,-0.266 -0.696,-0.266 -0.961,0 z"
   id="path45" />
						<path
   style="fill:#010e30"
   d="m 164.306,139.184 h 2.462 c 0.007,-0.228 0.017,-0.454 0.017,-0.684 0,-0.227 -0.01,-0.451 -0.017,-0.675 h -2.462 c -0.375,0 -0.68,0.304 -0.68,0.68 v 0 c 0.001,0.374 0.305,0.679 0.68,0.679 z"
   id="path46" />
						<path
   style="fill:#010e30"
   d="m 126.841,137.825 h -2.462 c -0.007,0.225 -0.017,0.449 -0.017,0.675 0,0.229 0.01,0.456 0.017,0.684 h 2.462 c 0.375,0 0.68,-0.304 0.68,-0.679 v 0 c -0.001,-0.376 -0.305,-0.68 -0.68,-0.68 z"
   id="path47" />
						<path
   style="fill:#010e30"
   d="m 158.339,151.27 v 0 c -0.265,0.265 -0.265,0.696 0,0.961 l 1.733,1.733 c 0.331,-0.31 0.651,-0.63 0.961,-0.961 L 159.3,151.27 c -0.265,-0.266 -0.696,-0.266 -0.961,0 z"
   id="path48" />
						<path
   style="fill:#010e30"
   d="m 132.808,125.739 v 0 c 0.265,-0.265 0.265,-0.696 0,-0.961 l -1.737,-1.737 c -0.33,0.31 -0.651,0.631 -0.961,0.961 l 1.737,1.737 c 0.265,0.265 0.696,0.265 0.961,0 z"
   id="path49" />
					</g>
				</g>
			<path
   style="font-variation-settings:'opsz' 32, 'wght' 700;fill:#465fff;fill-opacity:1;stroke:#484848;stroke-width:0;stroke-miterlimit:2.6;stroke-dasharray:none"
   d="m 143.92186,192.64395 c 0,-0.69078 -0.47658,-1.9017 -1.019,-2.58915 -0.63268,-0.80183 -1.72694,-1.44148 -2.65376,-1.55125 l -0.6161,-0.073 v -7.18367 -7.18366 l 0.27571,-0.12097 c 0.25689,-0.1127 0.27811,-0.2079 0.31083,-1.3948 l 0.0351,-1.27384 0.96386,0.0743 c 4.04952,0.31228 8.61383,2.28064 11.55886,4.98478 l 0.82924,0.76141 -0.73733,0.7882 c -0.60288,0.64448 -0.73733,0.86434 -0.73733,1.20567 0,0.42173 0.33671,0.79896 0.71314,0.79896 0.0927,0 0.55032,-0.36865 1.01705,-0.81924 l 0.84858,-0.81924 0.36349,0.42099 c 0.75399,0.87327 2.0752,2.92084 2.73649,4.24091 1.21715,2.4297 1.97698,5.02582 2.27872,7.78581 0.0716,0.65446 0.13009,1.27481 0.13009,1.37856 0,0.15585 -0.19168,0.18864 -1.10285,0.18864 -0.93946,0 -1.13916,0.0363 -1.34792,0.24507 -0.1348,0.1348 -0.24508,0.30022 -0.24508,0.36762 0,0.0802 -2.34866,0.12254 -6.80091,0.12254 h -6.8009 z"
   id="path19"
   transform="matrix(1,0,0,0.94982079,6.0093143,-44.830129)" /><path
   style="font-variation-settings:'opsz' 32, 'wght' 700;fill:#465fff;fill-opacity:1;stroke:#484848;stroke-width:0;stroke-miterlimit:2.6;stroke-dasharray:none"
   d="m 183.93823,208.36647 c -4.69021,-1.04725 -8.71082,-5.67672 -10.18123,-11.72302 -0.6879,-2.82861 -0.6709,-2.17084 -0.6709,-25.95313 v -21.92818 h 4.28689 4.28688 l 0.0326,21.84255 0.0326,21.84254 0.33777,0.98032 c 0.42708,1.23952 1.0787,2.17564 1.93378,2.7781 2.27273,1.60129 5.01902,0.34611 6.13405,-2.80355 l 0.29465,-0.83233 0.0329,-21.90381 0.0329,-21.90382 h 4.28395 4.28396 l 0.0368,21.78128 c 0.0347,20.57962 0.0489,21.82147 0.25777,22.50984 0.48826,1.60945 1.42648,2.87017 2.58795,3.47753 0.82196,0.42983 2.16379,0.45519 3.03337,0.0573 1.19321,-0.54594 2.22329,-1.95714 2.75421,-3.77326 0.20068,-0.68645 0.21735,-2.17228 0.2513,-22.39397 l 0.0363,-21.65874 h 4.2853 4.28528 l -0.003,20.80097 c -0.002,11.44053 -0.0545,21.6281 -0.11711,22.63905 -0.13729,2.21548 -0.47437,4.03741 -1.09878,5.93896 -1.75412,5.34189 -5.37312,9.17048 -9.6256,10.18306 -0.91761,0.2185 -1.34984,0.25252 -2.57332,0.20257 -1.74759,-0.0713 -2.56632,-0.27348 -4.04378,-0.99831 -1.35724,-0.66587 -2.46912,-1.49602 -3.49772,-2.6115 l -0.78456,-0.85081 -1.12118,1.114 c -1.38987,1.38094 -2.81154,2.28747 -4.49813,2.86821 -1.13509,0.39085 -1.39523,0.43378 -2.84245,0.46911 -1.11777,0.0273 -1.84668,-0.0178 -2.44333,-0.15098 z"
   id="path20"
   transform="matrix(1,0,0,0.94982079,6.0093143,-44.830129)" /><path
   style="font-variation-settings:'opsz' 32, 'wght' 700;fill:#465fff;fill-opacity:1;stroke:#484848;stroke-width:0;stroke-miterlimit:2.6;stroke-dasharray:none"
   d="m 225.41018,178.294 v -29.53186 h 15.19482 15.19481 v 5.8206 5.82059 H 244.89385 233.9879 v 6.0044 6.00441 h 6.55583 6.55582 v 5.88186 5.88186 h -6.55582 -6.55583 v 11.825 11.825 h -4.28886 -4.28886 z"
   id="path21"
   transform="matrix(1,0,0,0.94982079,6.0093143,-44.830129)" /><path
   style="font-variation-settings:'opsz' 32, 'wght' 700;fill:#465fff;fill-opacity:1;stroke:#484848;stroke-width:0;stroke-miterlimit:2.6;stroke-dasharray:none"
   d="m 260.70389,186.84108 c 10e-4,-11.92991 0.0529,-21.76281 0.11934,-22.78789 0.27544,-4.25172 1.63595,-8.15558 3.88084,-11.13569 1.39646,-1.85381 2.89601,-3.10385 4.82887,-4.0254 1.5672,-0.74721 2.36624,-0.92179 4.21881,-0.92179 1.84519,0 2.65236,0.17499 4.19153,0.9087 1.43257,0.6829 2.40127,1.37418 3.55381,2.53606 l 1.0057,1.01386 1.07746,-1.07371 c 2.26992,-2.26201 4.87517,-3.443 7.60781,-3.44872 6.27512,-0.0131 11.73781,6.21174 12.82716,14.6169 0.16213,1.25087 0.18743,4.40655 0.18743,23.37428 v 21.92818 h -4.28886 -4.28886 v -21.6085 c 0,-21.12783 -0.005,-21.62959 -0.2424,-22.55628 -0.31476,-1.23069 -0.76322,-2.04438 -1.59568,-2.89522 -0.79213,-0.80961 -1.49142,-1.09776 -2.664,-1.09776 -1.94723,0 -3.59724,1.69042 -4.13701,4.23832 -0.15363,0.72516 -0.17976,3.94575 -0.18158,22.38324 l -0.002,21.5362 h -4.28886 -4.28886 l -0.004,-21.35239 c -0.004,-17.88395 -0.0325,-21.51093 -0.17815,-22.32834 -0.3354,-1.88248 -1.45134,-3.55228 -2.79079,-4.17589 -0.82778,-0.38539 -2.10268,-0.4113 -2.87991,-0.0585 -0.7868,0.35712 -1.78049,1.3659 -2.21512,2.24875 -0.79585,1.6166 -0.75074,0.17803 -0.75274,24.00764 l -0.002,21.65874 h -4.35013 -4.35013 z"
   id="path33"
   transform="matrix(1,0,0,0.94982079,6.0093143,-44.830129)" /></g>
			<circle
   style="fill:#010e30"
   cx="145.573"
   cy="138.504"
   r="4.3200002"
   id="circle51" />
		</g></svg>
